<svg id="svg" version="1.1" xmlns="http://www.w3.org/2000/svg" style="display: block;" viewBox="0 0 1024 1024"><path d="M0,0 L1024,0 L1024,1024 L0,1024 Z " transform="translate(0,0)" style="fill: #D4CDBF;"/><path d="M0,0 L87,0 L87,390 L-82,390 L-82,450 L87,450 L87,683 L0,683 L0,709 L87,709 L87,769 L-654,769 L-654,357 L-653,356 L-579,356 L-578,555 L-544,589 L-537,597 L-508,626 L-501,634 L-481,654 L-474,662 L-457,679 L-447,670 L-411,634 L-410,194 L-278,194 L-256,199 L-240,206 L-228,213 L-215,223 L-204,234 L-194,247 L-184,266 L-179,281 L-177,294 L-177,322 L-181,341 L-189,361 L-198,376 L-207,387 L-215,396 L-226,405 L-237,413 L-253,421 L-261,424 L-261,492 L-237,485 L-220,478 L-203,469 L-186,457 L-174,446 L-169,441 L-161,433 L-150,419 L-140,404 L-128,381 L-121,362 L-117,347 L-114,328 L-114,293 L-117,273 L-124,249 L-130,233 L-142,210 L-154,194 L-165,182 L-176,171 L-191,160 L-206,151 L-222,143 L-237,137 L-263,130 L-263,125 L-262,124 L0,124 Z " transform="translate(793,124)" style="fill: #1AA96E;"/><path d="M0,0 L654,0 L654,124 L392,125 L391,130 L398,131 L419,137 L439,145 L457,155 L474,167 L486,178 L498,190 L511,207 L521,225 L529,243 L537,269 L540,284 L541,293 L541,328 L537,352 L529,376 L519,397 L510,412 L498,428 L486,441 L482,446 L474,453 L460,464 L442,475 L423,484 L397,492 L392,493 L392,424 L403,419 L417,412 L428,404 L442,392 L451,381 L460,368 L468,352 L473,338 L476,322 L476,294 L473,277 L467,262 L459,247 L451,237 L442,227 L432,218 L418,209 L403,202 L391,198 L376,195 L244,194 L244,634 L200,678 L196,680 L189,672 L173,656 L166,648 L146,628 L139,620 L110,591 L103,583 L75,555 L75,301 L0,301 L0,63 L75,63 L75,25 L0,25 Z " transform="translate(139,124)" style="fill: #EA4A2D;"/><path d="M0,0 L132,0 L154,5 L170,12 L182,19 L195,29 L206,40 L216,53 L226,72 L231,87 L233,102 L74,102 L61,105 L52,111 L50,111 L50,113 L43,119 L38,127 L34,140 L33,144 L33,162 L38,178 L42,183 L45,188 L49,193 L49,195 L51,195 L52,199 L57,200 L66,206 L66,575 L-244,575 L-244,163 L-243,162 L-169,162 L-168,361 L-134,395 L-127,403 L-98,432 L-91,440 L-71,460 L-64,468 L-47,485 L-37,476 L-1,440 Z " transform="translate(383,318)" style="fill: #29221A;"/><path d="M0,0 L208,0 L208,4 L215,5 L236,11 L256,19 L274,29 L291,41 L303,52 L315,64 L328,81 L338,99 L346,117 L354,143 L357,158 L358,167 L358,202 L354,226 L346,250 L336,271 L327,286 L315,302 L303,315 L299,320 L291,327 L277,338 L259,349 L240,358 L214,366 L209,367 L209,298 L220,293 L234,286 L245,278 L259,266 L268,255 L277,242 L285,226 L290,212 L293,196 L293,168 L290,151 L284,136 L276,121 L268,111 L259,101 L249,92 L235,83 L220,76 L208,72 L193,69 L61,68 L61,508 L17,552 L13,554 L6,546 L0,540 Z " transform="translate(322,250)" style="fill: #FDFBF9;"/><path d="M0,0 L87,0 L87,390 L-82,390 L-82,450 L-83,450 L-83,124 L0,124 Z " transform="translate(793,124)" style="fill: #0B7DB4;"/><path d="M0,0 L75,0 L75,1 L1,1 L1,237 L75,237 L75,62 L391,62 L391,63 L183,63 L183,602 L176,596 L164,583 L146,565 L139,557 L110,528 L103,520 L75,492 L75,238 L0,238 Z " transform="translate(139,187)" style="fill: #E3B737;"/><path d="M0,0 L158,0 L159,1 L159,27 L155,46 L147,66 L138,81 L129,92 L121,101 L110,110 L99,118 L83,126 L75,129 L74,198 L73,474 L-7,474 L-8,473 L-8,105 L-13,103 L-19,99 L-22,98 L-23,94 L-25,94 L-31,86 L-37,77 L-42,61 L-42,43 L-39,32 L-35,23 L-29,15 L-26,12 L-24,12 L-24,10 L-17,5 L-9,2 Z " transform="translate(457,419)" style="fill: #E2B837;"/><path d="M0,0 L179,0 L179,326 L349,326 L349,409 L-1,409 L-1,369 L28,360 L46,352 L62,343 L76,333 L88,322 L93,317 L101,309 L112,295 L122,280 L134,257 L141,238 L145,223 L148,204 L148,169 L145,149 L138,125 L132,109 L120,86 L108,70 L97,58 L86,47 L71,36 L56,27 L40,19 L25,13 L-1,6 L-1,1 Z " transform="translate(531,248)" style="fill: #1AA86E;"/><path d="M0,0 L132,0 L154,5 L170,12 L182,19 L195,29 L206,40 L216,53 L226,72 L231,87 L233,102 L74,102 L61,105 L52,111 L50,111 L50,113 L43,119 L38,127 L34,140 L33,144 L33,162 L38,178 L42,183 L45,188 L49,193 L49,195 L51,195 L52,199 L57,200 L66,206 L66,377 L54,388 L46,396 L38,403 L4,437 L0,439 Z " transform="translate(383,318)" style="fill: #0C7DB4;"/><path d="M0,0 L262,0 L262,124 L0,124 Z " transform="translate(531,124)" style="fill: #E2B735;"/><path d="M0,0 L350,0 L350,66 L0,66 Z " transform="translate(530,657)" style="fill: #1AA86E;"/><path d="M0,0 L179,0 L179,326 L100,327 L89,338 L72,351 L57,360 L36,370 L18,376 L-1,380 L-1,369 L28,360 L46,352 L62,343 L76,333 L88,322 L93,317 L101,309 L112,295 L122,280 L134,257 L141,238 L145,223 L148,204 L148,169 L145,149 L138,125 L132,109 L120,86 L108,70 L97,58 L86,47 L71,36 L56,27 L40,19 L25,13 L-1,6 L-1,1 Z " transform="translate(531,248)" style="fill: #27211A;"/><path d="M0,0 L158,0 L159,1 L159,27 L155,46 L147,66 L138,81 L129,92 L121,101 L110,110 L99,118 L83,126 L73,129 L73,58 L64,58 L64,68 L60,80 L54,91 L44,101 L30,108 L21,110 L8,110 L-4,107 L-13,103 L-19,99 L-22,98 L-23,94 L-25,94 L-31,86 L-37,77 L-42,61 L-42,43 L-39,32 L-35,23 L-29,15 L-26,12 L-24,12 L-24,10 L-17,5 L-9,2 Z " transform="translate(457,419)" style="fill: #29221A;"/><path d="M0,0 L1,0 L2,229 L41,268 L48,276 L99,327 L106,335 L139,368 L146,376 L180,410 L180,412 L0,412 Z " transform="translate(139,481)" style="fill: #1CA96D;"/><path d="M0,0 L87,0 L87,124 L0,124 Z " transform="translate(793,124)" style="fill: #28221A;"/><path d="M0,0 L170,0 L170,60 L0,60 Z " transform="translate(711,514)" style="fill: #FBFBFA;"/><path d="M0,0 L22,0 L36,7 L46,16 L53,26 L57,36 L58,41 L58,57 L55,70 L49,82 L40,92 L31,99 L21,103 L16,104 L-2,104 L-16,99 L-25,94 L-31,86 L-37,77 L-42,61 L-42,43 L-39,32 L-35,23 L-29,15 L-26,12 L-24,12 L-24,10 L-17,5 L-9,2 Z " transform="translate(457,419)" style="fill: #E84B2E;"/><path d="M0,0 L350,0 L350,15 L0,15 Z " transform="translate(530,723)" style="fill: #25231B;"/><path d="M0,0 L350,0 L350,15 L0,15 Z " transform="translate(530,642)" style="fill: #252019;"/><path d="M0,0 L87,0 L87,59 L0,59 Z " transform="translate(793,834)" style="fill: #28221A;"/><path d="M0,0 L263,0 L263,16 L0,16 Z " transform="translate(530,808)" style="fill: #26231A;"/><path d="M0,0 L75,0 L75,55 L0,55 Z " transform="translate(139,425)" style="fill: #FDFBF8;"/><path d="M0,0 L75,0 L75,38 L0,38 Z " transform="translate(139,149)" style="fill: #FDFAF8;"/><path d="M0,0 L88,0 L88,26 L0,26 Z " transform="translate(793,807)" style="fill: #FBFAF8;"/><path d="M0,0 L73,0 L73,23 L0,23 Z " transform="translate(140,125)" style="fill: #261F19;"/><path d="M0,0 L262,0 L262,9 L349,9 L349,10 L262,10 L262,69 L194,68 L194,67 L259,67 L259,28 L260,1 L0,1 Z " transform="translate(531,824)" style="fill: #308663;"/><path d="M0,0 L5,1 L3,4 L2,69 L262,68 L350,68 L350,69 L263,70 L0,70 Z " transform="translate(530,738)" style="fill: #3CA77C;"/><path d="M0,0 L2,0 L3,56 L3,116 L2,143 L0,139 Z " transform="translate(450,551)" style="fill: #DABA3E;"/><path d="M0,0 L1,0 L1,119 L-5,119 L-5,117 L-1,117 L-1,4 Z " transform="translate(791,128)" style="fill: #E3B943;"/><path d="M0,0 L5,1 L3,4 L2,69 L5,70 L0,70 Z " transform="translate(530,738)" style="fill: #3BA26A;"/><path d="M0,0 L2,0 L2,22 L3,30 L2,28 L-1,27 L-2,22 L-2,4 Z " transform="translate(414,458)" style="fill: #177AAF;"/><path d="M0,0 L3,3 L11,20 L12,25 L9,25 L8,16 L5,15 L5,12 L3,12 L3,6 L0,5 Z " transform="translate(600,375)" style="fill: #1975A9;"/><path d="M0,0 L2,1 L-2,7 L-9,13 L-12,13 L-10,9 L-6,5 L-4,5 L-4,3 Z " transform="translate(437,426)" style="fill: #AE5A52;"/><path d="M0,0 L5,1 L10,3 L19,4 L22,6 L22,8 L14,7 L3,3 Z " transform="translate(442,520)" style="fill: #312B1F;"/><path d="M0,0 L4,4 L2,5 L1,35 L0,35 Z " transform="translate(140,710)" style="fill: #1F9D68;"/><path d="M0,0 L4,1 L2,5 L-5,5 L-5,3 L-9,2 L-8,1 Z " transform="translate(469,523)" style="fill: #271B12;"/><path d="M0,0 L7,6 L19,18 L17,20 L16,17 L14,17 L7,9 L0,2 Z " transform="translate(618,296)" style="fill: #F4F4F0;"/><path d="M0,0 L1,0 L2,16 L3,24 L2,22 L-1,21 Z " transform="translate(414,464)" style="fill: #2873A7;"/><path d="M0,0 L9,2 L17,6 L16,8 L9,6 L9,4 L4,4 L0,2 Z " transform="translate(536,324)" style="fill: #197AA7;"/><path d="M0,0 L1,3 L-8,12 L-11,11 Z " transform="translate(378,762)" style="fill: #1A1618;"/><path d="M0,0 L3,1 L-6,9 L-8,8 Z " transform="translate(629,576)" style="fill: #28A371;"/><path d="M0,0 L2,0 L1,6 L-2,12 L-4,12 L-1,3 Z " transform="translate(610,468)" style="fill: #E4E4DD;"/><path d="M0,0 L2,2 L-4,8 L-7,7 Z " transform="translate(356,784)" style="fill: #1B1717;"/><path d="M0,0 L0,3 L-7,7 L-10,7 L-10,5 Z " transform="translate(550,539)" style="fill: #E7E9E3;"/><path d="M0,0 L2,1 L1,4 L-3,7 L-6,6 Z " transform="translate(385,755)" style="fill: #1B2025;"/><path d="M0,0 Z M-3,1 L0,2 L-5,7 L-8,6 Z " transform="translate(510,512)" style="fill: #D9B33E;"/><path d="M0,0 L2,2 L-5,8 L-4,4 Z " transform="translate(344,796)" style="fill: #1D1718;"/><path d="M0,0 L7,6 L5,8 L1,4 Z " transform="translate(230,801)" style="fill: #2F9468;"/><path d="M0,0 L1,3 L-6,9 L-4,5 Z " transform="translate(585,511)" style="fill: #E4E6DE;"/><path d="M0,0 L2,3 L4,10 L1,10 Z " transform="translate(608,390)" style="fill: #267AAB;"/><path d="M0,0 L3,2 L6,8 L2,6 L0,4 Z " transform="translate(422,499)" style="fill: #486D9B;"/></svg>